<?xml version="1.0" encoding="UTF-8" standalone="no"?>
<!-- Created with Inkscape (http://www.inkscape.org/) -->

<svg
   width="80"
   height="27.5"
   viewBox="0 0 20 6.875"
   version="1.1"
   id="svg1"
   xml:space="preserve"
   inkscape:version="1.4.2 (f4327f4, 2025-05-13)"
   sodipodi:docname="name-main+logo_ver-2.svg"
   inkscape:export-filename="name-main+logo_ver-2.png"
   inkscape:export-xdpi="1000"
   inkscape:export-ydpi="1000"
   xmlns:inkscape="http://www.inkscape.org/namespaces/inkscape"
   xmlns:sodipodi="http://sodipodi.sourceforge.net/DTD/sodipodi-0.dtd"
   xmlns="http://www.w3.org/2000/svg"
   xmlns:svg="http://www.w3.org/2000/svg"><sodipodi:namedview
     id="namedview1"
     pagecolor="#ffffff"
     bordercolor="#000000"
     borderopacity="0.25"
     inkscape:showpageshadow="2"
     inkscape:pageopacity="0.0"
     inkscape:pagecheckerboard="true"
     inkscape:deskcolor="#d1d1d1"
     inkscape:document-units="mm"
     inkscape:zoom="13.446697"
     inkscape:cx="41.645915"
     inkscape:cy="3.9043045"
     inkscape:window-width="2560"
     inkscape:window-height="1351"
     inkscape:window-x="2551"
     inkscape:window-y="-9"
     inkscape:window-maximized="1"
     inkscape:current-layer="layer1" /><defs
     id="defs1"><filter
       style="color-interpolation-filters:sRGB;"
       inkscape:label="Noise Fill"
       id="filter195"
       x="-0.0066554053"
       y="-0.033954083"
       width="1.0133108"
       height="1.0679082"><feTurbulence
         type="fractalNoise"
         baseFrequency="10 10"
         numOctaves="5"
         seed="50"
         result="turbulence"
         id="feTurbulence194" /><feComposite
         in="SourceGraphic"
         in2="turbulence"
         operator="in"
         result="composite1"
         id="feComposite194" /><feColorMatrix
         values="1 0 0 0 0 0 1 0 0 0 0 0 1 0 0 0 0 0 4 -0.1 "
         result="color"
         id="feColorMatrix194" /><feFlood
         flood-opacity="0"
         flood-color="rgb(4,42,57)"
         result="flood"
         id="feFlood194" /><feMerge
         result="merge"
         id="feMerge195"><feMergeNode
           in="flood"
           id="feMergeNode194" /><feMergeNode
           in="color"
           id="feMergeNode195" /></feMerge><feComposite
         in2="SourceGraphic"
         operator="in"
         result="composite2"
         id="feComposite195" /></filter><filter
       style="color-interpolation-filters:sRGB"
       inkscape:label="Noise Fill"
       id="filter195-4"
       x="0"
       y="0"
       width="1"
       height="1"><feTurbulence
         type="fractalNoise"
         baseFrequency="10 10"
         numOctaves="5"
         seed="50"
         result="turbulence"
         id="feTurbulence194-8" /><feComposite
         in="SourceGraphic"
         in2="turbulence"
         operator="in"
         result="composite1"
         id="feComposite194-8" /><feColorMatrix
         values="1 0 0 0 0 0 1 0 0 0 0 0 1 0 0 0 0 0 4 -0.1 "
         result="color"
         id="feColorMatrix194-2" /><feFlood
         flood-opacity="0"
         flood-color="rgb(4,42,57)"
         result="flood"
         id="feFlood194-4" /><feMerge
         result="merge"
         id="feMerge195-5"><feMergeNode
           in="flood"
           id="feMergeNode194-5" /><feMergeNode
           in="color"
           id="feMergeNode195-1" /></feMerge><feComposite
         in2="SourceGraphic"
         operator="in"
         result="composite2"
         id="feComposite195-7" /></filter></defs><g
     inkscape:label="Layer 1"
     inkscape:groupmode="layer"
     id="layer1"><path
       d="m 2.0526488,3.3171464 c -0.6125,0 -1.015,0.301 -1.015,0.7735 0,0.8645 1.281,0.63 1.281,1.001 0,0.112 -0.098,0.1645 -0.252,0.1645 -0.252,0 -0.6615,-0.161 -0.9135,-0.3745 l -0.27300003,0.553 c 0.30800003,0.2415 0.76300003,0.3885 1.17950003,0.3885 0.5495,0 1.0115,-0.2485 1.0115,-0.77 0,-0.8855 -1.281,-0.672 -1.281,-1.0325 0,-0.091 0.0805,-0.133 0.203,-0.133 0.2065,0 0.5635,0.1295 0.8155,0.273 l 0.2695,-0.56 c -0.266,-0.1715 -0.651,-0.2835 -1.0255,-0.2835 z m 3.2550024,0.6125 v -0.581 h -2.156 v 0.581 h 0.7105 v 1.8725 h 0.7315 v -1.8725 z m 1.6100021,1.4805 0.1435,0.392 h 0.777 l -1.0115,-2.4535 h -0.749 l -1.0465,2.4535 h 0.749 l 0.147,-0.392 z m -0.1925,-0.532 h -0.595 l 0.301,-0.8015 z m 4.0354977,0.924 v -2.4535 H 9.9801508 l -0.5915,1.358 -0.5915,-1.358 h -0.7805 v 2.4535 h 0.6405 v -1.4525 l 0.4935,1.211 h 0.476 l 0.4935002,-1.211 0.0035,1.4525 z m 0.413001,-2.4535 v 2.4535 h 0.728 v -0.6615 h 0.385 c 0.6335,0 0.9975,-0.336 0.9975,-0.9205 0,-0.5565 -0.364,-0.8715 -0.9975,-0.8715 z m 0.728,0.56 h 0.35 c 0.217,0 0.343,0.119 0.343,0.3325 0,0.2205 -0.126,0.3395 -0.343,0.3395 h -0.35 z m 3.668002,0 v -0.56 h -2.0055 v 2.4535 h 2.0405 v -0.56 h -1.3125 v -0.3885 h 1.1585 v -0.56 h -1.1585 v -0.385 z m 0.385002,-0.56 v 2.4535 h 1.05 c 0.8085,0 1.344,-0.49 1.344,-1.2285 0,-0.7385 -0.525,-1.225 -1.3195,-1.225 z m 0.728,0.574 h 0.3325 c 0.35,0 0.5915,0.2625 0.5915,0.658 0,0.392 -0.224,0.651 -0.5565,0.651 h -0.3675 z"
       id="text1"
       style="font-weight:800;font-size:3.5px;font-family:Montserrat;-inkscape-font-specification:'Montserrat, Ultra-Bold';fill:#042a84;stroke-width:0.264583;filter:url(#filter195)"
       transform="rotate(-6.5)"
       aria-label="STAMPED" /><rect
       style="fill:none;fill-opacity:0.0133928;stroke:#042a84;stroke-width:0.245163;stroke-dasharray:none;stroke-opacity:1;filter:url(#filter195)"
       id="rect1"
       width="18.418337"
       height="3.6102138"
       x="0.38312945"
       y="2.7160537"
       transform="matrix(0.99396891,-0.10966225,0.11685545,0.99314893,0,0)" /></g><g
     inkscape:groupmode="layer"
     id="layer2"
     inkscape:label="Layer 2"
     style="display:none"><text
       xml:space="preserve"
       style="font-style:normal;font-variant:normal;font-weight:800;font-stretch:normal;font-size:3.5px;font-family:Montserrat;-inkscape-font-specification:'Montserrat, Ultra-Bold';font-variant-ligatures:normal;font-variant-caps:normal;font-variant-numeric:normal;font-variant-east-asian:normal;text-align:start;writing-mode:lr-tb;direction:ltr;text-anchor:start;fill:#042a84;fill-opacity:1;stroke-width:0.264583;filter:url(#filter195-4)"
       x="0.83814877"
       y="5.8021464"
       id="text1-5"
       transform="rotate(-6.5000001,-75.120199,-3.958006)"><tspan
         sodipodi:role="line"
         id="tspan1-2"
         style="font-style:normal;font-variant:normal;font-weight:800;font-stretch:normal;font-size:3.5px;font-family:Montserrat;-inkscape-font-specification:'Montserrat, Ultra-Bold';font-variant-ligatures:normal;font-variant-caps:normal;font-variant-numeric:normal;font-variant-east-asian:normal;fill:#042a84;fill-opacity:1;stroke-width:0.264583"
         x="0.83814877"
         y="5.8021464">STAMPED</tspan></text></g></svg>
